#!OML:ASF E:\Steps\Project 1\Capture day 1\Session 2\Subject.ASF
:FULLY-SPECIFIED
:DEGREES
676
root 9.81534 20.0904 -6.34092 -155.039 -3.51863 176.61
lowerback -20.9832 -1.86763 -2.0617
upperback 0.868955 -2.33603 1.87785
thorax 12.9864 -1.35634 2.5373
lowerneck -2.61039 -2.95585 -1.28301
upperneck 21.3073 -2.54364 0.816068
head 6.95094 -0.663813 0.381727
rclavicle 2.5842e-015 2.94201e-014
rhumerus -37.61 -14.6555 -76.3457
rradius 35.9877
rwrist -5.05049
rhand -9.11614 -51.5797
rfingers 7.12502
rthumb 16.8346 -80.8699
lclavicle 2.5842e-015 2.94201e-014
lhumerus -31.3215 0.2112 83.5317
lradius 26.2825
lwrist -1.40865
lhand -19.7424 -13.971
lfingers 7.12502
lthumb 6.58854 15.9065
rfemur -44.091 1.26401 20.052
rtibia 34.3671
rfoot -25.7563 -8.03471
rtoes -34.0083
lfemur -43.7764 -4.17372 -21.703
ltibia 69.8138
lfoot -0.252133 7.40203
ltoes -36.2976
677
root 9.8289 20.1349 -6.38435 -155.141 -3.28266 176.549
lowerback -21.1441 -1.69195 -2.10637
upperback 0.985094 -2.07185 1.78645
thorax 13.1935 -1.23405 2.54275
lowerneck -2.7235 -3.00032 -1.16312
upperneck 21.2519 -2.59797 0.647682
head 6.9491 -0.69927 0.301918
rclavicle -8.74653e-015 1.66979e-014
rhumerus -37.2236 -14.7442 -76.4034
rradius 35.785
rwrist -4.89449
rhand -9.15569 -51.0386
rfingers 7.12502
rthumb 16.7966 -80.3321
lclavicle -8.74653e-015 1.66979e-014
lhumerus -31.1453 0.163486 83.4773
lradius 26.2533
lwrist -1.37264
lhand -19.8755 -14.0824
lfingers 7.12502
lthumb 6.46005 15.7991
rfemur -43.3797 1.39075 19.9823
rtibia 33.5452
rfoot -25.5067 -7.7775
rtoes -33.5504
lfemur -44.9878 -3.78864 -21.9583
ltibia 72.4133
lfoot -0.855954 7.11953
ltoes -36.3451
678
root 9.84387 20.1782 -6.42674 -155.265 -3.10506 176.485
lowerback -21.2032 -1.58889 -2.21349
upperback 1.00399 -1.90307 1.76062
thorax 13.2409 -1.16326 2.6291
lowerneck -2.16812 -2.99333 -1.11292
upperneck 20.7751 -2.59759 0.569635
head 6.69539 -0.709907 0.273472
rclavicle 1.39149e-015 -2.38542e-015
rhumerus -37.0491 -14.4853 -76.4687
rradius 35.7333
rwrist -4.94662
rhand -9.29347 -51.0187
rfingers 7.12502
rthumb 16.6639 -80.3234
lclavicle 1.39149e-015 -2.38542e-015
lhumerus -31.337 0.341687 83.4159
lradius 26.372
lwrist -1.34932
lhand -20.0229 -14.138
lfingers 7.12502
lthumb 6.31766 15.7478
rfemur -42.5534 1.55356 19.8791
rtibia 32.5764
rfoot -25.3237 -7.5044
rtoes -32.7448
lfemur -46.281 -3.42156 -22.2267
ltibia 75.1038
lfoot -1.51984 6.67512
ltoes -38.4045
679
root 9.86087 20.2209 -6.46625 -155.369 -2.95492 176.362
lowerback -21.1936 -1.48751 -2.37671
upperback 1.01098 -1.72168 1.72729
thorax 13.235 -1.08948 2.74422
lowerneck -2.33789 -1.04154 -1.38801
upperneck 21.3364 -3.30774 1.21797
head 6.92442 -2.23597 0.332385
rclavicle 1.82882e-014 -1.82882e-014
rhumerus -36.9483 -14.1661 -76.5186
rradius 35.8411
rwrist -5.15566
rhand -9.57312 -51.4325
rfingers 7.12502
rthumb 16.3947 -80.7596
lclavicle 1.82882e-014 -1.82882e-014
lhumerus -31.628 0.476981 83.3941
lradius 26.6652
lwrist -1.35066
lhand -20.2887 -14.4654
lfingers 7.12502
lthumb 6.06109 15.4279
rfemur -41.658 1.71246 19.6934
rtibia 31.4612
rfoot -25.0594 -7.20509
rtoes -31.356
lfemur -47.5747 -3.12941 -22.4945
ltibia 77.4432
lfoot -1.9099 6.22389
ltoes -39.6442
680
root 9.87603 20.2598 -6.5022 -155.348 -2.88143 176.221
lowerback -21.3101 -1.4083 -2.50779
upperback 1.06023 -1.57162 1.67698
thorax 13.351 -1.02846 2.81078
lowerneck -2.27995 -1.05026 -1.4252
upperneck 21.1194 -3.27303 1.21328
head 6.84376 -2.21042 0.343719
rclavicle 1.19271e-015 -2.54444e-014
rhumerus -36.5166 -13.9807 -76.6006
rradius 35.5734
rwrist -5.24717
rhand -9.61487 -51.4903
rfingers 7.12502
rthumb 16.3545 -80.8207
lclavicle 1.19271e-015 -2.54444e-014
lhumerus -31.6421 0.733611 83.2943
lradius 26.8082
lwrist -1.47287
lhand -20.4354 -14.8442
lfingers 7.12502
lthumb 5.91949 15.0531
rfemur -40.8763 1.69393 19.579
rtibia 30.3084
rfoot -24.7206 -7.12396
rtoes -31.58
lfemur -48.9958 -3.00462 -22.6923
ltibia 79.4044
lfoot -2.18223 5.85382
ltoes -38.975
681
root 9.88919 20.2975 -6.53538 -155.347 -2.81198 176.076
lowerback -21.2873 -1.35605 -2.62646
upperback 1.03093 -1.46676 1.62995
thorax 13.2978 -0.98572 2.85986
lowerneck -2.39942 -1.01147 -1.38511
upperneck 21.2071 -3.17189 0.976535
head 6.88732 -2.17519 0.265153
rclavicle 1.0138e-014 2.94201e-014
rhumerus -36.1108 -14.1239 -76.5418
rradius 35.1216
rwrist -4.92356
rhand -9.40626 -51.2627
rfingers 7.12502
rthumb 16.5553 -80.5765
lclavicle 1.0138e-014 2.94201e-014
lhumerus -31.726 0.909638 83.1879
lradius 26.8213
lwrist -1.31367
lhand -20.4871 -14.855
lfingers 7.12502
lthumb 5.86953 15.0437
rfemur -40.223 1.6585 19.4639
rtibia 29.3433
rfoot -24.5315 -7.12031
rtoes -32.5143
lfemur -50.4091 -2.90171 -22.8953
ltibia 81.3125
lfoot -2.73693 5.74075
ltoes -38.7708
682
root 9.90442 20.3336 -6.5659 -155.327 -2.63474 175.881
lowerback -21.1949 -1.26633 -2.84413
upperback 0.89973 -1.29087 1.5545
thorax 13.0818 -0.914259 2.95599
lowerneck -2.1 -0.97724 -1.45435
upperneck 21.2773 -3.1735 1.03269
head 6.85937 -2.19264 0.296973
rclavicle 8.94531e-015 -2.38542e-015
rhumerus -36.1119 -14.2275 -76.4378
rradius 35.0177
rwrist -4.67775
rhand -9.46355 -51.1729
rfingers 7.12502
rthumb 16.5002 -80.4912
lclavicle 8.94531e-015 -2.38542e-015
lhumerus -32.0527 0.675922 83.2155
lradius 27.0275
lwrist -0.68573
lhand -20.2758 -14.1452
lfingers 7.12502
lthumb 6.0736 15.7477
rfemur -39.7269 1.7188 19.2361
rtibia 28.5483
rfoot -24.3008 -7.08577
rtoes -33.2206
lfemur -51.8091 -2.71943 -23.2
ltibia 83.1379
lfoot -3.36655 5.64054
ltoes -39.2618
683
root 9.91979 20.3672 -6.5995 -155.318 -2.53589 175.766
lowerback -21.2341 -1.16997 -2.9696
upperback 0.872927 -1.12376 1.49213
thorax 13.0612 -0.843183 3.01107
lowerneck -2.31035 -1.04995 -1.10194
upperneck 21.7772 -3.27568 0.525077
head 7.04712 -2.27319 0.0567622
rclavicle 6.95746e-015 6.36111e-015
rhumerus -36.0191 -14.2979 -76.4346
rradius 35.0131
rwrist -4.53735
rhand -9.67887 -51.1053
rfingers 7.12502
rthumb 16.2929 -80.4408
lclavicle 6.95746e-015 6.36111e-015
lhumerus -32.2941 0.496521 83.2164
lradius 27.3143
lwrist -0.174359
lhand -19.9321 -13.4526
lfingers 7.12502
lthumb 6.40536 16.4305
rfemur -39.0634 1.73638 19.1311
rtibia 27.5613
rfoot -23.8967 -7.06313
rtoes -34.2501
lfemur -53.1795 -2.59867 -23.3896
ltibia 84.7568
lfoot -3.89057 5.53595
ltoes -39.6454
684
root 9.93415 20.4015 -6.6288 -155.403 -2.59539 175.781
lowerback -21.1686 -1.09779 -2.92
upperback 0.93531 -1.03443 1.47278
thorax 13.0875 -0.796994 2.99025
lowerneck -2.52503 -1.09423 -1.35303
upperneck 21.8209 -3.38922 0.98718
head 7.11217 -2.30239 0.237478
rclavicle -3.97569e-016 -9.54166e-015
rhumerus -35.7152 -14.5443 -76.4472
rradius 35.0071
rwrist -4.29884
rhand -9.65593 -50.8546
rfingers 7.12502
rthumb 16.315 -80.1883
lclavicle -3.97569e-016 -9.54166e-015
lhumerus -32.3509 0.545759 83.1153
lradius 27.3879
lwrist -0.0410891
lhand -19.8007 -13.4132
lfingers 7.12502
lthumb 6.53222 16.4661
rfemur -38.2932 1.73027 19.2089
rtibia 26.5662
rfoot -23.5666 -7.10531
rtoes -34.5599
lfemur -54.5073 -2.52475 -23.3673
ltibia 86.2612
lfoot -4.32363 5.43843
ltoes -39.9498
685
root 9.94792 20.4317 -6.65355 -155.489 -2.59211 175.711
lowerback -20.9489 -1.02432 -2.97058
upperback 0.934776 -0.923561 1.4474
thorax 12.9522 -0.74469 3.02636
lowerneck -2.62074 -1.0901 -1.65706
upperneck 21.5753 -3.34449 1.26592
head 7.05734 -2.26227 0.384946
rclavicle 2.98177e-015 3.97569e-015
rhumerus -35.4933 -14.5652 -76.4452
rradius 35.1429
rwrist -4.18798
rhand -9.08269 -51.0277
rfingers 7.12502
rthumb 16.8668 -80.3152
lclavicle 2.98177e-015 3.97569e-015
lhumerus -32.435 0.554374 83.0822
lradius 27.3815
lwrist 0.0835436
lhand -19.8504 -13.6574
lfingers 7.12502
lthumb 6.48421 16.2234
rfemur -37.7234 1.72506 19.1761
rtibia 25.8823
rfoot -23.3766 -7.21775
rtoes -34.3747
lfemur -55.8659 -2.40603 -23.468
ltibia 87.6775
lfoot -4.73079 5.4209
ltoes -39.8321
686
root 9.96054 20.4565 -6.68481 -155.498 -2.55675 175.645
lowerback -20.8757 -0.966952 -3.01774
upperback 0.918646 -0.838937 1.45437
thorax 12.8856 -0.707974 3.08798
lowerneck -2.64185 -1.00811 -1.46773
upperneck 21.8304 -3.18602 0.76728
head 7.13113 -2.22313 0.19879
rclavicle 3.57812e-015 2.38542e-015
rhumerus -35.3507 -14.1882 -76.5059
rradius 35.3938
rwrist -4.42392
rhand -8.55659 -51.57
rfingers 7.12502
rthumb 17.3732 -80.8136
lclavicle 3.57812e-015 2.38542e-015
lhumerus -32.5356 0.505977 83.1413
lradius 27.3649
lwrist 0.349263
lhand -19.9539 -13.8
lfingers 7.12502
lthumb 6.38428 16.0838
rfemur -37.1668 1.77431 19.1334
rtibia 25.1122
rfoot -23.1105 -7.308
rtoes -34.2301
lfemur -57.3019 -2.2684 -23.6015
ltibia 88.9373
lfoot -5.20779 5.45481
ltoes -39.827
687
root 9.97092 20.4805 -6.72139 -155.506 -2.58526 175.679
lowerback -20.9344 -0.950372 -2.96107
upperback 0.883397 -0.836378 1.47725
thorax 12.8776 -0.704843 3.08163
lowerneck -2.56103 -0.985754 -1.69661
upperneck 21.8531 -3.21291 1.09122
head 7.13297 -2.2328 0.340806
rclavicle 7.95139e-016 -3.4191e-014
rhumerus -35.4261 -13.7053 -76.6671
rradius 35.8277
rwrist -5.02557
rhand -8.99118 -51.7121
rfingers 7.12502
rthumb 16.9549 -80.9921
lclavicle 7.95139e-016 -3.4191e-014
lhumerus -32.7103 0.446831 83.1116
lradius 27.2448
lwrist 0.547217
lhand -20.0899 -13.9407
lfingers 7.12502
lthumb 6.25306 15.9471
rfemur -36.4891 1.8993 19.1837
rtibia 24.1469
rfoot -22.8787 -7.3407
rtoes -34.2399
lfemur -58.7182 -2.18536 -23.6035
ltibia 90.0558
lfoot -5.92689 5.45198
ltoes -40.2819
